<?xml version="1.0" encoding="utf-8"?>
<!-- Generator: Adobe Illustrator 24.3.0, SVG Export Plug-In . SVG Version: 6.00 Build 0)  -->
<svg version="1.1"
	 id="Layer_1" xmlns:cc="http://creativecommons.org/ns#" xmlns:dc="http://purl.org/dc/elements/1.1/" xmlns:inkscape="http://www.inkscape.org/namespaces/inkscape" xmlns:rdf="http://www.w3.org/1999/02/22-rdf-syntax-ns#" xmlns:sodipodi="http://sodipodi.sourceforge.net/DTD/sodipodi-0.dtd" xmlns:svg="http://www.w3.org/2000/svg"
	 xmlns="http://www.w3.org/2000/svg" xmlns:xlink="http://www.w3.org/1999/xlink" x="0px" y="0px" viewBox="0 0 37.9 39.7"
	 style="enable-background:new 0 0 37.9 39.7;" xml:space="preserve">
<g transform="translate(0,-952.36218)">
	<path d="M18.2,952.6L0.5,965.8c-0.3,0.2-0.5,0.7-0.5,1.1v23.8c0,0.7,0.6,1.3,1.3,1.3h11.9c0.7,0,1.3-0.6,1.3-1.3v-6.6
		c0-2.5,1.9-4.4,4.4-4.4s4.4,1.9,4.4,4.4v6.6c0,0.7,0.6,1.3,1.3,1.3h11.9c0.7,0,1.3-0.6,1.3-1.3v-23.8c0-0.4-0.2-0.8-0.5-1.1
		l-17.6-13.2C19.2,952.3,18.7,952.3,18.2,952.6L18.2,952.6z M19,955.3l16.3,12.2v21.8H26v-5.3c0-3.9-3.2-7.1-7.1-7.1
		s-7.1,3.2-7.1,7.1v5.3H2.6v-21.8L19,955.3z"/>
</g>
</svg>
