<?xml version="1.0" encoding="utf-8"?>
<!-- Generator: Adobe Illustrator 24.3.0, SVG Export Plug-In . SVG Version: 6.00 Build 0)  -->
<svg version="1.1" xmlns="http://www.w3.org/2000/svg" xmlns:xlink="http://www.w3.org/1999/xlink" x="0px" y="0px"
	 viewBox="0 0 11.7 11.1" style="enable-background:new 0 0 11.7 11.1;" xml:space="preserve">
<g id="Layer_2">
</g>
<g id="Layer_1">
	<path d="M9,6.9l2.5-2.1c0.4-0.3,0.2-0.9-0.3-0.9L7.9,3.7c-0.2,0-0.4-0.1-0.4-0.3l-1.2-3c-0.2-0.4-0.8-0.4-0.9,0l-1.2,3
		C4.1,3.5,3.9,3.7,3.7,3.7L0.5,3.9C0,3.9-0.2,4.5,0.2,4.8l2.5,2.1c0.1,0.1,0.2,0.3,0.2,0.5l-0.8,3.2c-0.1,0.4,0.4,0.8,0.8,0.6
		l2.7-1.8c0.2-0.1,0.4-0.1,0.5,0L8.8,11c0.4,0.2,0.9-0.1,0.8-0.6L8.8,7.4C8.7,7.2,8.8,7,9,6.9z"/>
</g>
</svg>
