<?xml version="1.0" encoding="utf-8"?>
<!-- Generator: Adobe Illustrator 24.3.0, SVG Export Plug-In . SVG Version: 6.00 Build 0)  -->
<svg version="1.1"
	 id="Layer_1" xmlns:cc="http://creativecommons.org/ns#" xmlns:dc="http://purl.org/dc/elements/1.1/" xmlns:inkscape="http://www.inkscape.org/namespaces/inkscape" xmlns:rdf="http://www.w3.org/1999/02/22-rdf-syntax-ns#" xmlns:sodipodi="http://sodipodi.sourceforge.net/DTD/sodipodi-0.dtd" xmlns:svg="http://www.w3.org/2000/svg"
	 xmlns="http://www.w3.org/2000/svg" xmlns:xlink="http://www.w3.org/1999/xlink" x="0px" y="0px" viewBox="0 0 41.3 41.3"
	 style="enable-background:new 0 0 41.3 41.3;" xml:space="preserve">
<style type="text/css">
	.st0{stroke:#000000;stroke-width:9.656688e-02;stroke-miterlimit:10;}
	.st1{stroke:#000000;stroke-width:9.697625e-02;stroke-miterlimit:10;}
	.st2{stroke:#000000;stroke-width:8.238910e-02;stroke-miterlimit:10;}
	.st3{stroke:#000000;stroke-width:8.838183e-02;stroke-miterlimit:10;}
</style>
<g>
	<rect x="16.5" y="15.2" class="st0" width="1.4" height="15.4"/>
	<rect x="23.4" y="15.2" class="st1" width="1.4" height="15.4"/>
	<path class="st2" d="M20.6,0C9.3,0,0,9.3,0,20.6s9.2,20.6,20.6,20.6S41.2,32,41.2,20.6S32,0,20.6,0z M27.9,31.6
		c-0.1,0.8-0.8,1.4-1.6,1.4H15c-0.8,0-1.5-0.6-1.6-1.4l-2.5-18.8h19.6L27.9,31.6z M30.9,12H10.3V11c0-0.6,0.5-1.1,1.1-1.1h4.8
		c0-1,0.9-1.6,1.9-1.6h4.9c1.1,0,1.9,0.6,1.9,1.6h4.8c0.6,0,1.1,0.5,1.1,1.1L30.9,12L30.9,12z"/>
	<rect x="20.1" y="15.2" class="st3" width="1.1" height="15.4"/>
</g>
</svg>
