<?xml version="1.0" encoding="utf-8"?>
<!-- Generator: Adobe Illustrator 24.3.0, SVG Export Plug-In . SVG Version: 6.00 Build 0)  -->
<svg version="1.1" id="Layer_1" xmlns="http://www.w3.org/2000/svg" xmlns:xlink="http://www.w3.org/1999/xlink" x="0px" y="0px"
	 viewBox="0 0 17.4 13.2" style="enable-background:new 0 0 17.4 13.2;" xml:space="preserve">
<path d="M17.1,5.8c-0.2-0.2-0.5-0.3-0.8-0.3l-12.5,0l3.6-3.6c0.4-0.4,0.4-1.1,0-1.6s-1.1-0.4-1.6,0L0.3,5.8l0,0c0,0-0.1,0.1-0.1,0.2
	l0,0c0,0.1-0.1,0.1-0.1,0.2l0,0c0,0.1,0,0.1-0.1,0.2l0,0c0,0.1,0,0.3,0,0.4l0,0c0,0.1,0,0.1,0.1,0.2l0,0c0,0.1,0.1,0.1,0.1,0.2l0,0
	c0,0.1,0.1,0.1,0.1,0.2l5.5,5.5c0.4,0.4,1.1,0.4,1.6,0c0.4-0.4,0.4-1.1,0-1.6L3.8,7.7l12.5,0c0.6,0,1.1-0.5,1.1-1.1
	C17.4,6.3,17.3,6,17.1,5.8z"/>
</svg>
