<?xml version="1.0" encoding="utf-8"?>
<!-- Generator: Adobe Illustrator 24.3.0, SVG Export Plug-In . SVG Version: 6.00 Build 0)  -->
<svg version="1.1"
	 id="Layer_1" xmlns:cc="http://creativecommons.org/ns#" xmlns:dc="http://purl.org/dc/elements/1.1/" xmlns:inkscape="http://www.inkscape.org/namespaces/inkscape" xmlns:rdf="http://www.w3.org/1999/02/22-rdf-syntax-ns#" xmlns:sodipodi="http://sodipodi.sourceforge.net/DTD/sodipodi-0.dtd" xmlns:svg="http://www.w3.org/2000/svg"
	 xmlns="http://www.w3.org/2000/svg" xmlns:xlink="http://www.w3.org/1999/xlink" x="0px" y="0px" viewBox="0 0 5 4.2"
	 style="enable-background:new 0 0 5 4.2;" xml:space="preserve">
<g transform="translate(0,-952.36218)">
	<path d="M1.8,952.4l-0.3,0.7h-1c-0.3,0-0.5,0.2-0.5,0.5v2.5c0,0.3,0.2,0.5,0.5,0.5h4.1c0.3,0,0.5-0.2,0.5-0.5v-2.5
		c0-0.3-0.2-0.5-0.5-0.5h-1l-0.3-0.7H1.8z M2.5,953.6c0.7,0,1.2,0.5,1.2,1.2S3.2,956,2.5,956c-0.7,0-1.2-0.5-1.2-1.2
		S1.9,953.6,2.5,953.6z M2.5,954c-0.4,0-0.8,0.3-0.8,0.8c0,0.4,0.3,0.8,0.8,0.8c0.4,0,0.8-0.3,0.8-0.8C3.3,954.4,2.9,954,2.5,954z"
		/>
</g>
</svg>
