<?xml version="1.0" encoding="utf-8"?>
<!-- Generator: Adobe Illustrator 24.3.0, SVG Export Plug-In . SVG Version: 6.00 Build 0)  -->
<svg version="1.1"
	 id="Layer_1" xmlns:cc="http://creativecommons.org/ns#" xmlns:dc="http://purl.org/dc/elements/1.1/" xmlns:inkscape="http://www.inkscape.org/namespaces/inkscape" xmlns:rdf="http://www.w3.org/1999/02/22-rdf-syntax-ns#" xmlns:sodipodi="http://sodipodi.sourceforge.net/DTD/sodipodi-0.dtd" xmlns:svg="http://www.w3.org/2000/svg"
	 xmlns="http://www.w3.org/2000/svg" xmlns:xlink="http://www.w3.org/1999/xlink" x="0px" y="0px" viewBox="0 0 11.8 9.9"
	 style="enable-background:new 0 0 11.8 9.9;" xml:space="preserve">
<g transform="translate(0,-952.36218)">
	<path d="M1,952.4c-0.3,0-0.5,0.1-0.7,0.2C0.1,952.7,0,953,0,953.3v6.1c0,0.3,0.1,0.5,0.3,0.7c0.2,0.1,0.4,0.2,0.7,0.2h0.5v1.6
		c0,0.1,0.1,0.3,0.2,0.3s0.3,0,0.4,0l2.5-1.9h6c0.3,0,0.5-0.1,0.7-0.2c0.2-0.2,0.3-0.4,0.3-0.7v-6.1c0-0.3-0.1-0.5-0.3-0.7
		c-0.2-0.2-0.4-0.2-0.7-0.2C7.5,952.4,4.3,952.4,1,952.4z M1,953.1c3.2,0,6.5,0,9.7,0c0.1,0,0.2,0,0.2,0.1s0,0,0,0.1v6.1
		c0,0,0,0,0,0.1c0,0-0.1,0.1-0.2,0.1H4.6c-0.1,0-0.2,0-0.2,0.1l-2,1.5v-1.2c0-0.2-0.2-0.4-0.4-0.4c-0.3,0-0.6,0-0.9,0
		c-0.1,0-0.2,0-0.2-0.1c0,0,0,0,0-0.1v-6.1c0,0,0,0,0-0.1C0.8,953.2,0.9,953.1,1,953.1z"/>
</g>
</svg>
