<?xml version="1.0" encoding="utf-8"?>
<!-- Generator: Adobe Illustrator 24.3.0, SVG Export Plug-In . SVG Version: 6.00 Build 0)  -->
<svg version="1.1"
	 id="Layer_1" xmlns:cc="http://creativecommons.org/ns#" xmlns:dc="http://purl.org/dc/elements/1.1/" xmlns:inkscape="http://www.inkscape.org/namespaces/inkscape" xmlns:rdf="http://www.w3.org/1999/02/22-rdf-syntax-ns#" xmlns:sodipodi="http://sodipodi.sourceforge.net/DTD/sodipodi-0.dtd" xmlns:svg="http://www.w3.org/2000/svg"
	 xmlns="http://www.w3.org/2000/svg" xmlns:xlink="http://www.w3.org/1999/xlink" x="0px" y="0px" viewBox="0 0 24.8 21.5"
	 style="enable-background:new 0 0 24.8 21.5;" xml:space="preserve">
<g transform="translate(0,-952.36218)">
	<path d="M6.8,952.4c-0.3,0-0.6,0.3-0.7,0.6l-1.4,4.9c-1.3,0-2.6,0-3.9,0c-0.4,0-0.7,0.4-0.7,0.8v14.3c0,0.4,0.4,0.8,0.8,0.8h17.7
		c0.4,0,0.8-0.4,0.8-0.8v-0.5l0.6,0.2c0.4,0.1,0.9-0.2,1-0.6l3.9-14.1c0.1-0.4-0.2-0.9-0.6-1l-17.1-4.7C7,952.4,6.9,952.4,6.8,952.4
		L6.8,952.4z M7.5,954.2l15.5,4.2l-3.4,12.5l-0.3-0.1v-12.1c0-0.4-0.4-0.8-0.8-0.8H6.4L7.5,954.2z M1.7,959.5h16v10l-3-3.3
		c-0.2-0.2-0.4-0.3-0.7-0.3c-0.1,0-0.2,0-0.3,0.1l-5.3,2.6l-2-2.2c-0.2-0.2-0.4-0.3-0.7-0.3c-0.1,0-0.2,0-0.3,0.1l-3.8,1.9
		L1.7,959.5z M9.1,961.2c-1.4,0-2.5,1.1-2.5,2.5c0,1.4,1.1,2.5,2.5,2.5c1.4,0,2.5-1.1,2.5-2.5C11.6,962.3,10.5,961.2,9.1,961.2z
		 M9.1,962.8c0.5,0,0.8,0.4,0.8,0.8c0,0.5-0.4,0.8-0.8,0.8c-0.5,0-0.8-0.4-0.8-0.8C8.3,963.2,8.6,962.8,9.1,962.8z M13.9,967.7
		l3.8,4.3v0.2h-6l-2.1-2.3L13.9,967.7z M5.6,968l3.8,4.2H1.7V970L5.6,968z"/>
</g>
</svg>
