<?xml version="1.0" encoding="utf-8"?>
<!-- Generator: Adobe Illustrator 24.3.0, SVG Export Plug-In . SVG Version: 6.00 Build 0)  -->
<svg version="1.1" id="Layer_1" xmlns="http://www.w3.org/2000/svg" xmlns:xlink="http://www.w3.org/1999/xlink" x="0px" y="0px"
	 viewBox="0 0 100 125" style="enable-background:new 0 0 100 125;" xml:space="preserve">
<path d="M57.3,19.7c0-0.9,0.7-1.6,1.6-1.6h5.7c6.9,0,12.5,5.6,12.5,12.5v8.1l2.1-2.1c0.6-0.6,1.6-0.6,2.3,0c0.6,0.6,0.6,1.6,0,2.3
	l-4.8,4.8c-0.3,0.3-0.7,0.5-1.1,0.5s-0.8-0.2-1.1-0.5l-4.8-4.8c-0.6-0.6-0.6-1.6,0-2.3c0.6-0.6,1.6-0.6,2.3,0l2.1,2.1v-8.1
	c0-5.1-4.2-9.3-9.3-9.3h-5.7C58,21.3,57.3,20.6,57.3,19.7z M18.1,47.8V19.9c0-0.9,0.7-1.6,1.6-1.6h27.9c0.9,0,1.6,0.7,1.6,1.6v27.9
	c0,0.9-0.7,1.6-1.6,1.6H19.7C18.8,49.4,18.1,48.7,18.1,47.8z M21.3,46.2H46V21.5H21.3V46.2z M28.2,63.4c0.3,0.3,0.7,0.5,1.1,0.5
	s0.8-0.2,1.1-0.5c0.6-0.6,0.6-1.6,0-2.3l-4.8-4.8c-0.3-0.3-0.7-0.5-1.1-0.5s-0.8,0.2-1.1,0.5l-4.8,4.8c-0.6,0.6-0.6,1.6,0,2.3
	c0.6,0.6,1.6,0.6,2.3,0l2.1-2.1v8.1c0,6.9,5.6,12.5,12.5,12.5h5.7c0.9,0,1.6-0.7,1.6-1.6s-0.7-1.6-1.6-1.6h-5.7
	c-5.1,0-9.3-4.2-9.3-9.3v-8.1L28.2,63.4z M50.8,80.1V52.2c0-0.9,0.7-1.6,1.6-1.6h27.9c0.9,0,1.6,0.7,1.6,1.6v27.9
	c0,0.9-0.7,1.6-1.6,1.6H52.4C51.5,81.7,50.8,81,50.8,80.1z M54,78.5h24.7V53.8H54V78.5z M32.6,33.5l-3.2-4L24,39.9h19.2l-6-13.4
	L32.6,33.5z M25.6,38.9l4-7.8l3,3.8l4.5-6.7l4.7,10.6H25.6z M65.3,65.1l-3.2-4l-5.4,10.4H76l-6-13.4L65.3,65.1z M58.3,70.6l4-7.8
	l3,3.8l4.5-6.7l4.7,10.6H58.3z"/>
</svg>
